<?xml version="1.0"?>
<svg xmlns="http://www.w3.org/2000/svg" xmlns:xlink="http://www.w3.org/1999/xlink" version="1.1" id="Capa_1" x="0px" y="0px" viewBox="0 0 512 512" style="enable-background:new 0 0 512 512;" xml:space="preserve" width="512px" height="512px" class=""><g><circle style="fill:#009966" cx="256" cy="256" r="256" data-original="#42DB8F" class="" data-old_color="#42DB8F"/><path style="fill:#008E5F" d="M511.494,271.898L358.187,118.591L83,403.097l97.614,97.614C204.447,508.045,229.761,512,256,512  C392.044,512,503.283,405.875,511.494,271.898z" data-original="#0ACB72" class="active-path" data-old_color="#0ACB72"/><rect x="109.12" y="187.43" style="fill:#37474F;" width="293.76" height="195.51" data-original="#37474F" class=""/><rect x="255.57" y="187.43" style="fill:#263238;" width="147.31" height="195.51" data-original="#263238" class=""/><rect x="123.98" y="201.65" style="fill:#FEC300;" width="264.04" height="145.54" data-original="#FEC300" class=""/><rect x="255.57" y="201.65" style="fill:#FEB200;" width="132.45" height="145.54" data-original="#FEB200"/><rect x="83" y="362.12" style="fill:#455A64;" width="346" height="40.983" data-original="#455A64"/><rect x="255.57" y="362.12" style="fill:#37474F;" width="173.43" height="40.982" data-original="#37474F" class=""/><polygon style="fill:#FFFFFF;" points="314.731,75.135 153.813,75.135 153.813,339.031 358.187,339.031 358.187,118.591 " data-original="#FFFFFF"/><polygon style="fill:#E0E0E0;" points="358.187,118.591 314.731,75.135 255.571,75.135 255.571,339.031 358.187,339.031 " data-original="#E0E0E0" class=""/><polygon style="fill:#CED7DB;" points="314.731,118.591 358.187,118.591 314.731,75.135 " data-original="#CED7DB" class=""/><path style="fill:#E0E0E0;" d="M171.656,131.867v148.145h93.43v31.604h75.258V131.867H171.656z M324.542,200.851h-43.653v-17.989  h43.653V200.851z M324.542,232.953h-43.653v-16.3h43.653V232.953z M324.542,248.755v15.455h-43.653v-15.455L324.542,248.755  L324.542,248.755z M265.086,216.653v16.3h-77.628v-16.3H265.086z M187.458,200.851v-17.989h77.628v17.989H187.458z M324.542,167.06  h-43.653v-19.391h43.653V167.06z M265.086,147.669v19.391h-77.628v-19.391H265.086z M187.458,264.21v-15.455h77.628v15.455H187.458z   M324.542,295.814h-43.653v-15.802h43.653V295.814z" data-original="#E0E0E0" class=""/><path style="fill:#C0C0C0;" d="M255.571,131.866v15.802h9.515v19.391h-9.515v15.802h9.515v17.989h-9.515v15.802h9.515v16.3h-9.515  v15.802h9.515v15.455h-9.515v15.802h9.515v31.604h75.258v-179.75L255.571,131.866L255.571,131.866z M324.542,295.814h-43.654  v-15.802h43.654V295.814z M324.542,264.209h-43.654v-15.455h43.654V264.209z M324.542,232.953h-43.654v-16.3h43.654V232.953z   M324.542,200.851h-43.654v-17.989h43.654V200.851z M324.542,167.06h-43.654v-19.391h43.654V167.06z" data-original="#C0C0C0" class=""/></g> </svg>
